  <svg xmlns="http://www.w3.org/2000/svg" fill="none" viewBox="0 0 72 38"><path fill="#0033A0" d="M23.964 8.265h-2.29v10.171h2.29zM26.166 10.98q.557-.16 1.439-.299.879-.14 1.848-.14.986-.001 1.637.259.652.256 1.036.723.382.472.544 1.116.16.646.161 1.44v4.358h-2.189v-4.094q-.001-1.056-.278-1.499-.28-.439-1.043-.438-.236-.001-.5.022a9 9 0 0 0-.469.051v5.958h-2.187zM34.738 8.795l2.187-.353v2.276h2.627v1.817h-2.627v2.716q0 .691.244 1.101.239.41.973.41a4.2 4.2 0 0 0 1.41-.25l.31 1.702a6 6 0 0 1-.883.281q-.483.118-1.189.116-.895 0-1.48-.24a2.34 2.34 0 0 1-.94-.675 2.5 2.5 0 0 1-.492-1.052 6.2 6.2 0 0 1-.139-1.365V8.795M40.667 14.636q0-1.029.317-1.799.315-.77.828-1.285a3.4 3.4 0 0 1 1.181-.777 3.6 3.6 0 0 1 1.372-.265q1.646.002 2.6 1.003.954 1.009.955 2.961 0 .19-.015.416-.016.23-.03.406h-4.961q.074.675.63 1.072.559.396 1.496.394.604.001 1.183-.109t.948-.27l.291 1.774c-.117.058-.274.12-.469.177q-.292.089-.653.155-.357.064-.769.109-.413.044-.824.044-1.041-.001-1.812-.308a3.5 3.5 0 0 1-1.277-.844 3.4 3.4 0 0 1-.75-1.27 5 5 0 0 1-.24-1.584m5.14-.837a2.1 2.1 0 0 0-.098-.545 1.4 1.4 0 0 0-.247-.468 1.3 1.3 0 0 0-.427-.337 1.36 1.36 0 0 0-.639-.134 1.4 1.4 0 0 0-.63.128 1.3 1.3 0 0 0-.44.329 1.5 1.5 0 0 0-.271.476 3 3 0 0 0-.14.551zM56.273 17.47q0 1.893-.961 2.81-.962.919-2.976.918-.703 0-1.407-.124a9 9 0 0 1-1.307-.33l.381-1.837q.515.204 1.079.325c.378.077.804.117 1.286.117q.941 0 1.33-.412.389-.41.388-1.057v-.277a3.6 3.6 0 0 1-1.543.32q-1.598 0-2.45-.947-.854-.946-.853-2.648.001-.853.265-1.55.265-.696.77-1.195a3.4 3.4 0 0 1 1.241-.771c.49-.182 1.04-.272 1.659-.272q.396-.001.814.037c.28.024.557.059.83.096q.41.06.785.139.375.081.668.167v6.49m-4.803-3.141q0 1.834 1.484 1.835.338 0 .633-.089.29-.087.499-.207v-3.493a4.7 4.7 0 0 0-.895-.073q-.867 0-1.292.572-.428.57-.429 1.455M62.98 12.656a13 13 0 0 0-.69-.154 4.2 4.2 0 0 0-1.342-.047q-.285.04-.432.082v5.901h-2.188v-7.31q.586-.204 1.386-.389a8 8 0 0 1 1.782-.183q.178-.001.428.022.249.021.498.059.25.037.5.088t.425.125zM67.15 10.511q.97.001 1.613.22.648.219 1.034.631.39.411.553.997.161.59.162 1.306v4.55c-.315.072-.75.15-1.307.245q-.836.139-2.025.138-.748 0-1.358-.13a3 3 0 0 1-1.049-.434 2 2 0 0 1-.677-.788q-.235-.483-.234-1.19 0-.673.272-1.144.27-.47.727-.748a3.3 3.3 0 0 1 1.04-.405c.394-.08.798-.124 1.22-.124q.424 0 .756.038.33.035.535.096v-.208q0-.556-.337-.894-.337-.336-1.173-.337-.56 0-1.101.08-.544.082-.94.227l-.279-1.762a9 9 0 0 1 .476-.122q.289-.067.624-.118.34-.051.712-.086.375-.037.756-.038m.176 6.4q.323 0 .617-.015.293-.015.469-.044v-1.657q-.132-.03-.396-.06a4.4 4.4 0 0 0-1.064.007 1.5 1.5 0 0 0-.477.139.8.8 0 0 0-.323.28.77.77 0 0 0-.117.44q0 .514.343.711.346.2.948.199M6.838 15.153H3.314L1.92 18.42h-.433l3.337-7.88h.258c.21 0 .328.094.398.281l3.208 7.599H8.22zm-.152-.374-1.615-3.817-1.616 3.817zM13.64 10.54v.398h-3.208v3.337h2.986v.374h-2.986v3.77h-.421v-7.88zM15.14 10.54h2.142c1.323 0 2.202 1.03 2.202 2.178 0 1.136-.879 2.178-2.202 2.178h-1.72v3.524h-.422zm3.91 2.166c0-.913-.703-1.79-1.804-1.79H15.56v3.594h1.686c1.1-.001 1.803-.867 1.803-1.804"></path><path fill="#0033A0" fill-rule="evenodd" d="m58.016 25.427.002 2.001c.001.693-.69 1.031-1.392 1.031-.725 0-1.346-.34-1.346-1.03v-2.733c.301 0 .644.099.645.648l.006 1.927c0 .375.282.563.715.563.41 0 .722-.188.722-.563l-.002-2.576c.447 0 .65.19.65.732m2.233-.732c-.805 0-1.357.465-1.357 1.42v2.294h.648v-2.316c0-.493.265-.787.765-.787h.192c.568 0 .662-.294.662-.611zm2.774 0h1.437v3.714c-.408 0-.613-.116-.661-.495 0 0-.285.566-1.101.566-.991 0-1.578-.787-1.545-1.913.034-1.238.845-1.872 1.708-1.872zm.738.597h-.748q-.06.004-.127.005c-.565 0-.994.39-1.02 1.28-.025.927.385 1.31.958 1.31.642 0 .937-.488.937-1.003zM53.742 26.36l-.793-.219c-.219-.06-.42-.156-.42-.422 0-.278.17-.413.522-.413h.706c.313 0 .684-.103.684-.611h-1.329c-.817.003-1.286.415-1.286 1.006 0 .553.35.86.976 1.027l.69.183c.286.077.386.255.386.44 0 .277-.174.446-.604.448l-1.324.01v.601h1.343c.821 0 1.29-.44 1.29-1.016 0-.581-.23-.87-.84-1.034" clip-rule="evenodd"></path><path fill="#00AEC7" fill-rule="evenodd" d="M67.052 29.154c-.38.132-.79.241-1.236.314q-.016.002-.017.017 0 .009.003.015.111.089.285.107.216.025.517-.054c.177-.046.347-.124.54-.215.18-.088.355-.189.504-.293.15-.109.267-.213.337-.307.003-.013-.002-.017-.009-.02a4 4 0 0 1-.924.436m.888-.651q.006-.02-.007-.023c-.367.145-1.164.285-1.662.357-.43.063-.799.073-1.004.085l-.093.006q-.019.005-.02.019c-.001.007.005.012.01.017a.65.65 0 0 0 .4.191c.278.04.69-.028 1.207-.178.428-.12.925-.329 1.169-.474m-.056.638c-.311.305-.772.474-.924.521a.02.02 0 0 0-.015.015q.001.014.01.02c.025.01.21.11.56-.063.199-.1.302-.263.39-.479.006-.011-.001-.017-.008-.02q-.006.001-.013.006m-1.765-4.515q.137.15.356.217l.012.004c.043.01 2.47.66 3.113.837.28.078.504.14.607.17q.019 0 .019-.012a.01.01 0 0 0-.008-.01 657 657 0 0 0-3.852-1.505l-.397-.154c-.013-.003-.018-.001-.023.002a.02.02 0 0 0-.006.015c.004.035.023.214.104.342a1 1 0 0 0 .075.094m.11-.958a.6.6 0 0 0 .182.154q.044.029.093.054l.223.116c.129.063 2.002.948 2.275 1.083.325.161.647.317.791.388q.02.004.016-.017c-.35-.22-1.69-1.073-2.644-1.67l-.69-.418-.123-.078-.235-.142q-.018-.007-.023 0c-.01.002-.01.008-.01.013a.9.9 0 0 0 .048.345c.025.06.057.122.097.172m4.27 2.422c-.322-.061-4.243-.773-4.243-.773q-.015-.001-.023.008-.005.01 0 .023a.72.72 0 0 0 .48.49c.03.009.056.012.086.016l3.698.259q.015 0 .016-.01c0-.005-.007-.013-.013-.013m-.821.228c-.345 0-.772 0-1.17-.002-.536-.001-1.385.002-1.385.002a.02.02 0 0 0-.015.008q-.008.009 0 .017c.013.036.06.127.114.185a.56.56 0 0 0 .342.183 1 1 0 0 0 .088-.003c.017-.003 2.547-.347 2.685-.369q.01-.004.011-.01 0-.013-.012-.015c-.118.004-.358.004-.658.004m.467.255c-.158.044-.752.196-1.28.326-.455.116-.967.254-.967.254-.053.013-.034.035-.029.042.012.022.044.067.076.127.08.137.19.119.293.084.019-.005 1.837-.755 1.92-.81.013-.006.004-.014.003-.017-.002-.008-.01-.006-.016-.006m-.813 1.26c-.242.2-.608.517-.99.838-.036.03-.05.08-.067.147-.024.11-.079.248-.079.248-.009.032.004.045.036.015.293-.314.943-1.027 1.118-1.23q.005-.02-.007-.02zm-.409-.294c-.218.13-.492.282-.634.37-.014.01-.03.01-.022.054 0 0 .008.041.009.091.015.212.101.188.227.092l.015-.012c.438-.36 1.252-1.037 1.432-1.185q.005-.02-.01-.022z" clip-rule="evenodd"></path><path fill="#00AEC7" d="M26.462 27.576v-1.781h.367v1.704c0 .317.264.607.646.607.367 0 .657-.268.657-.603v-1.708h.372v1.772c0 .467-.432.895-1.032.895-.635 0-1.01-.42-1.01-.886M29.386 26.76a.92.92 0 0 1 .638-.263c.489 0 .765.348.765.734v1.177h-.352V27.33c0-.27-.165-.512-.493-.512a.64.64 0 0 0-.493.218v1.372h-.355v-1.872c.145 0 .251.057.29.225M31.239 27.923c0-.314.24-.561.699-.565l.585-.004v-.119c0-.244-.157-.447-.451-.447-.253 0-.436.134-.466.375h-.314c.034-.429.382-.665.798-.665.504 0 .783.328.783.734v1.207c-.13.005-.252-.034-.286-.274a.91.91 0 0 1-.7.298c-.365-.001-.648-.212-.648-.54m.738.275a.69.69 0 0 0 .546-.233v-.374h-.513c-.294 0-.431.141-.431.314 0 .175.164.293.398.293M35.16 28.458c-.577 0-.983-.409-.983-.983a.96.96 0 0 1 .963-.978c.486 0 .917.34.917.932 0 .038 0 .084-.007.126h-1.517v.015a.64.64 0 0 0 .657.608c.233 0 .49-.134.57-.383l.268.134c-.127.318-.468.529-.868.529m-.031-1.69c-.31 0-.547.219-.592.544h1.173c-.027-.34-.26-.543-.581-.543M36.799 26.76a.92.92 0 0 1 .638-.263.73.73 0 0 1 .642.332c.206-.225.443-.332.695-.332.489 0 .764.348.764.734v1.177h-.352V27.33c0-.27-.16-.512-.489-.512a.66.66 0 0 0-.52.256q.024.076.024.156v1.177h-.351v-1.078c0-.27-.165-.512-.493-.512a.64.64 0 0 0-.493.218v1.372h-.356v-1.871c.145 0 .253.046.29.225M40.39 26.76a.87.87 0 0 1 .646-.259c.432 0 .926.286.926.955 0 .57-.429 1.005-.96 1.005a.8.8 0 0 1-.542-.187v.845h-.356v-2.583c.141 0 .244.046.286.225m.566 1.396c.34 0 .646-.275.646-.684 0-.466-.336-.664-.638-.664-.222 0-.405.092-.504.233v.906c.11.137.278.21.496.21M43.234 26.872c-.218 0-.367.077-.467.191v1.346h-.355v-1.873c.145 0 .255.05.294.237a.86.86 0 0 1 .631-.241v.347a1 1 0 0 0-.103-.007M44.503 28.458c-.577 0-.983-.409-.983-.983a.96.96 0 0 1 .963-.978c.486 0 .917.34.917.932 0 .038 0 .084-.007.126h-1.517v.015a.64.64 0 0 0 .657.608c.233 0 .489-.134.57-.383l.268.134c-.127.318-.468.529-.869.529m-.031-1.69c-.31 0-.546.219-.592.544h1.173c-.027-.34-.26-.543-.581-.543M46.439 28.187c.237 0 .424-.11.424-.286 0-.145-.114-.245-.313-.271l-.263-.035c-.328-.038-.52-.244-.52-.512 0-.337.321-.585.734-.585.271 0 .54.126.65.325l-.183.23c-.092-.188-.28-.28-.486-.28-.24 0-.4.114-.4.282 0 .141.11.222.298.249l.237.03c.359.046.561.249.561.535 0 .348-.325.592-.752.592-.29 0-.559-.114-.693-.317l.172-.24a.62.62 0 0 0 .534.283M47.51 27.923c0-.314.24-.561.699-.565l.585-.004v-.119c0-.244-.157-.447-.451-.447-.253 0-.436.134-.467.375h-.312c.034-.429.382-.665.798-.665.504 0 .783.328.783.734v1.207c-.13.005-.252-.034-.286-.274a.91.91 0 0 1-.7.298c-.367-.001-.65-.212-.65-.54m.737.275a.69.69 0 0 0 .547-.233v-.374h-.513c-.294 0-.431.141-.431.314-.001.175.163.293.397.293"></path></svg>